<svg version="1.0" xmlns="http://www.w3.org/2000/svg" width="448" height="448" viewBox="0 0 336 336"><path d="M76.9 41.8c-17.3 4.6-32.1 20.2-35.8 38-.8 3.6-1.1 31.5-1 89 0 75.8.2 84.3 1.7 90.3 4.6 17.3 20.2 32.1 38 35.8 3.6.8 31.5 1.1 89 1 75.8 0 84.3-.2 90.3-1.7 17.3-4.6 32.1-20.2 35.8-38 .8-3.6 1.1-31.5 1-89 0-75.8-.2-84.3-1.7-90.3-4.6-17.3-20.2-32.1-38-35.8-3.6-.8-31.5-1.1-89-1-75.8 0-84.3.2-90.3 1.7zM102 141v22h49l.2-21.8.3-21.7 8.8-.3 8.7-.3V223h-18v-44l-24.3.2-24.2.3-.3 21.7-.2 21.8H85V119h17v22zm145.4-19.4c10.3 4.1 16.7 12.7 18.6 25.1 2.7 17.1-5.2 32.9-18.9 37.9-3.5 1.3-9.1 1.8-22.8 2.2l-18.3.4V223h-17V118.8l26.8.4c23.5.4 27.3.7 31.6 2.4z"/><path d="M206.2 153.2l.3 17.3 15.6-.1c17.5 0 20.5-.9 24.4-7.4 2.9-5.1 2.8-15.2-.3-20.1-3.7-6-6.8-6.9-24.6-6.9H206l.2 17.2z"/></svg>